<svg id="Layer_1" data-name="Layer 1" xmlns="http://www.w3.org/2000/svg" width="253" height="250" viewBox="0 0 253 250"><defs><style>.cls-1{font-size:198.4px;font-family:KannadaSangamMN, Kannada Sangam MN;letter-spacing:-0.08em;}.cls-1,.cls-3{fill:#cecece;}.cls-2{fill:none;stroke:#cecece;stroke-miterlimit:10;stroke-width:3px;}</style></defs><text class="cls-1" transform="translate(33.73 -65.57) scale(1.01 1)">Pr</text><rect class="cls-2" x="1.5" y="2" width="250" height="248"/><path class="cls-3" d="M202.76,120.08,132.42,49.74a8.37,8.37,0,0,0-11.84,0L105.28,65l17.17,17.17a12.52,12.52,0,0,1,16.21,16.27l17,17a12.2,12.2,0,1,1-8.3,11.56,12.17,12.17,0,0,1,1-4.87l-16-16v41.81a12.7,12.7,0,1,1-10.36-.28v-42.3h0a12.49,12.49,0,0,1-6.61-16L98.18,72.14,50.24,120.08a8.37,8.37,0,0,0,0,11.84l70.34,70.34a8.37,8.37,0,0,0,11.84,0l70.34-70.34A8.37,8.37,0,0,0,202.76,120.08Z"/></svg>