<svg id="Layer_1" data-name="Layer 1" xmlns="http://www.w3.org/2000/svg" width="253" height="250" viewBox="0 0 253 250"><defs><style>.cls-1{font-size:136px;font-family:KannadaSangamMN, Kannada Sangam MN;letter-spacing:0.03em;}.cls-1,.cls-3{fill:#cecece;}.cls-2{fill:none;stroke:#cecece;stroke-miterlimit:10;stroke-width:3px;}</style></defs><text class="cls-1" transform="translate(24.83 -87.26) scale(1.01 1)">&lt;/&gt;</text><rect class="cls-2" x="1.5" y="2" width="250" height="248"/><path class="cls-3" d="M88.18,119.21h4.69s20-15.48,20-36.59c0,0,1.88-5.64,7.82-5.64s8.45,4.23,8.45,5.32,4.53,17.52-3.29,28.15h31.91s7,1.88,7,8.76-4.22,8-5.48,8,3.91.78,3.91,7.19-3.59,8.45-5.94,8.45c0,0,4.07.16,4.07,7.19s-3.76,8-5.32,8c0,0,3.75.31,3.75,6.88s-7.35,8.14-7.35,8.14H101.94s-8-2-8-3.91H88.18Z"/><circle class="cls-2" cx="126.5" cy="128.65" r="81.36"/></svg>